<?xml version="1.0" encoding="UTF-8" standalone="no"?>
<svg
   xmlns:dc="http://purl.org/dc/elements/1.1/"
   xmlns:cc="http://creativecommons.org/ns#"
   xmlns:rdf="http://www.w3.org/1999/02/22-rdf-syntax-ns#"
   xmlns:svg="http://www.w3.org/2000/svg"
   xmlns="http://www.w3.org/2000/svg"
   xmlns:sodipodi="http://sodipodi.sourceforge.net/DTD/sodipodi-0.dtd"
   xmlns:inkscape="http://www.inkscape.org/namespaces/inkscape"
   width="752.99701"
   height="137.12601"
   version="1.1"
   id="svg102"
   sodipodi:docname="wexp.svg"
   inkscape:version="1.0.2 (e86c870879, 2021-01-15)">
  <metadata
     id="metadata108">
    <rdf:RDF>
      <cc:Work
         rdf:about="">
        <dc:format>image/svg+xml</dc:format>
        <dc:type
           rdf:resource="http://purl.org/dc/dcmitype/StillImage" />
        <dc:title></dc:title>
      </cc:Work>
    </rdf:RDF>
  </metadata>
  <defs
     id="defs106" />
  <sodipodi:namedview
     pagecolor="#ffffff"
     bordercolor="#666666"
     borderopacity="1"
     objecttolerance="10"
     gridtolerance="10"
     guidetolerance="10"
     inkscape:pageopacity="0"
     inkscape:pageshadow="2"
     inkscape:window-width="1920"
     inkscape:window-height="1007"
     id="namedview104"
     showgrid="false"
     inkscape:zoom="1.2209424"
     inkscape:cx="419.76128"
     inkscape:cy="121.41866"
     inkscape:window-x="0"
     inkscape:window-y="0"
     inkscape:window-maximized="1"
     inkscape:current-layer="svg102" />
  <path
     id="path88"
     style="fill:#141414;stroke:none"
     d="m 209.40025,0.00385775 c -8.95138,-0.13074 -17.99784,3.06271995 -24.35156,9.41405995 -12.913,12.9080003 -13.87078,37.4672203 1.69922,48.6992203 -7.045,8.143 -13.12183,17.272 -19.42383,25.999999 -4.014,5.558 -8.62117,10.781 -11.57617,17.000003 -5.796,-3.037003 -11.235,-5.849883 -18,-4.671883 -3.756,0.654 -8.229,4.590833 -12,3.54883 -2.996,-0.828 -5.681,-3.85987 -8,-5.79687 -5.781,-4.827 -11.28,-10.61208 -18.000001,-14.080079 1.812001,-5.717 3.193481,-12.208 0.771481,-18 -4.741001,-11.335 -19.477831,-15.7733 -29.755864,-9.0293 -5.679,3.726 -9.10993,10.2583 -8.96093,17.0293 0.06,2.754 1.59679,6.17317 0.59179,8.82617 -1.167,3.083 -5.14348,5.168879 -7.64648,7.046879 -5.9631,4.475 -11.7861,9.35856 -18,13.47656 -5.2059,3.450003 -8.582,-0.0578 -14,-0.8418 -6.834,-0.989 -14.3105224,2.266253 -18.6074224,7.531253 -6.9576,8.525 -4.96755303,23.08717 4.623047,28.95117 3.6676004,2.242 7.8501754,2.01477 11.9843754,2.00977 3.4514,-0.004 6.867936,0.12866 9.960938,-1.65234 6.9945,-4.026 9.557812,-11.68466 8.945312,-19.34766 -0.2485,-3.11 -2.327228,-6.90616 -0.923828,-9.91016 1.4538,-3.112 5.372178,-5.23079 8.017578,-7.216793 6.666,-5.002 14.459,-9.63105 20,-15.87305 5.053,4.532 10.975003,7.7723 18.000003,6.5293 4.922,-0.872 10.171,-5.87696 15,-3.00196 5.379001,3.203 10.196001,8.37458 15.000001,12.39258 2.382,1.992003 5.54727,4.023603 7.07227,6.808603 1.971,3.6 -0.43877,10.12148 0.11523,14.27148 1.436,10.753 12.6045,17.27531 22.8125,15.69531 10.138,-1.569 16.77425,-10.67131 16.65625,-20.69531 -0.044,-3.675 -2.40253,-7.37 -1.14453,-11 2.822,-8.140003 11.20722,-16.030003 16.19922,-23.000002 3.362,-4.695 8.18165,-14.48981 13.47265,-17.00781 2.783,-1.324 6.14841,0.78036 8.81641,1.56836 4.867,1.439 9.984,1.86161 15,0.97461 22.851,-4.039 36.38236,-29.93516 24.06836,-50.53516 -2.776,-4.644 -6.51336,-8.2410503 -11.06836,-11.1230503 -5.14272,-3.25487 -11.22303,-4.90077995 -17.34766,-4.99022995 z m -0.45898,5.01171995 c 5.70643,-0.08344 11.54476,1.56167 16.76758,5.3222603 17.065,12.288 14.42906,39.11163 -3.96094,48.64063 -9.517,4.931 -18.618,2.96767 -28,-0.86133 3.907,-9.118 9.222,-4.38147 17,-5.10547 5.781,-0.538 11.04856,-4.23244 14.35156,-8.89844 9.185,-12.973 -1.84456,-31.02162 -17.35156,-30.64062 -6.911,0.169 -13.42503,5.84153 -16.58203,11.64453 -1.646,3.027 -2.55975,6.55 -2.21875,10 0.485,4.911 3.33378,8.898 5.80078,13 -1.933,2.17 -3.742,4.185 -6,6 -5.095,-5.993 -8.75592,-12.9 -8.54492,-21 0.42765,-16.38031 14.15518,-27.8883403 28.73828,-28.1015603 z m 0.0644,13.2324203 c 15.61488,-0.23017 20.89657,25.53805 3.74219,29.47461 -19.542,4.484 -26.322,-24.60936 -7,-29.06836 1.12925,-0.26063 2.21682,-0.39091 3.25781,-0.40625 z m -127.306641,36.7207 c 15.1192,-0.03652 21.703611,23.12396 5.04492,28.900389 -18.058003,6.261 -28.343143,-22.319609 -9.99414,-28.099609 1.73044,-0.54515 3.38517,-0.797 4.94922,-0.80078 z M 141.1502,101.18745 c 16.29202,-0.47773 21.49735,25.51047 3.59766,29.53516 -18.554,4.172 -25.381,-24.69327 -7,-29.07227 1.18113,-0.28143 2.31621,-0.43104 3.40234,-0.46289 z m -120.747997,2.38281 c 16.659903,-0.16817 19.947019,27.5 2.345703,29.4375 -4.0731,0.44901 -8.550031,0.008 -11.894531,-2.54296 -10.90160043,-8.313 -5.1559694,-25.28507 7.894531,-26.78907 0.564994,-0.0652 1.116881,-0.10003 1.654297,-0.10547 z" />
  <path
     id="path92"
     style="fill:#141414;stroke:none"
     d="M 550.0293 14.4375 C 545.3316 14.459807 540.33848 15.117188 536.74805 15.117188 C 544.52305 28.766188 555.03097 41.335188 564.16797 54.117188 C 567.02797 58.118187 574.1767 64.931188 573.9707 70.117188 C 573.7527 75.623188 566.27714 82.847189 563.11914 87.117188 C 553.82414 99.685187 543.35905 112.46019 535.74805 126.11719 C 542.46605 126.11719 554.63145 128.46584 560.56445 125.08984 C 563.80045 123.24784 565.79367 119.06019 567.88867 116.11719 C 573.06967 108.84319 578.01688 101.40719 583.17188 94.117188 C 593.95687 78.867188 604.38487 63.365188 615.17188 48.117188 C 622.78287 37.360188 631.33505 26.624187 637.74805 15.117188 C 631.54305 15.117188 621.78783 13.248703 616.04883 15.720703 C 611.80783 17.547703 609.21466 23.503188 606.72266 27.117188 C 600.41866 36.264187 592.69905 45.164187 587.74805 55.117188 C 581.62905 46.048187 575.2468 37.161188 569.0918 28.117188 C 566.4638 24.256187 563.9013 18.454531 559.6543 16.144531 C 557.15748 14.786531 553.68306 14.42015 550.0293 14.4375 z M 286.74805 15.117188 C 287.57705 25.534187 290.62914 35.901188 292.74414 46.117188 C 298.21214 72.528188 305.29505 99.380184 308.74805 126.11719 L 328.74805 126.11719 C 321.54105 88.952185 311.95205 52.263188 304.74805 15.117188 L 286.74805 15.117188 z M 379.74805 15.117188 C 377.58705 25.589188 374.25517 35.839188 371.32617 46.117188 C 369.90217 51.113188 367.46711 56.877188 367.53711 62.117188 C 367.67611 72.619187 372.90305 85.016188 375.74805 95.117188 C 379.66005 87.812188 380.73344 78.123188 382.89844 70.117188 C 387.85644 51.789187 392.60005 33.393187 397.74805 15.117188 L 379.74805 15.117188 z M 422.74805 15.117188 L 422.74805 33.117188 L 505.74805 33.117188 L 505.74805 15.117188 L 422.74805 15.117188 z M 666.74805 15.117188 L 666.74805 33.117188 L 701.74805 33.117188 C 709.31305 33.117188 716.99414 32.520609 723.74414 36.599609 C 736.19414 44.123609 735.44509 62.736219 722.74609 69.699219 C 715.65309 73.587219 707.54405 73.117188 699.74805 73.117188 L 666.74805 73.117188 L 666.74805 126.11719 L 686.74805 126.11719 L 686.74805 91.117188 C 703.99505 91.117188 722.63209 92.405358 737.74609 82.568359 C 757.83109 69.496359 757.98705 36.70025 738.74805 22.90625 C 728.18005 15.32825 715.20105 15.117187 702.74805 15.117188 L 666.74805 15.117188 z M 342.74805 16.117188 C 339.83405 25.077188 337.2683 34.143188 334.4043 43.117188 C 332.4983 49.088188 329.49675 55.805187 329.21875 62.117188 C 328.82275 71.082188 332.61305 83.759187 335.74805 92.117188 C 338.07605 88.306188 339.10005 83.519186 339.74805 79.117188 C 344.22905 89.667186 345.609 102.00019 348.375 113.11719 C 349.181 116.35719 349.51494 122.94084 352.33594 125.08984 C 356.31194 128.11984 366.90605 126.11719 371.74805 126.11719 C 364.94805 101.97619 359.20509 77.450187 353.12109 53.117188 C 350.20409 41.448188 348.49105 26.685188 342.74805 16.117188 z M 422.74805 61.117188 L 422.74805 79.117188 L 497.74805 79.117188 L 497.74805 61.117188 L 422.74805 61.117188 z M 607.74805 83.117188 C 604.68605 86.975188 598.11047 93.021187 597.73047 98.117188 C 597.50647 101.11419 599.99942 103.84119 601.60742 106.11719 C 605.43942 111.54219 610.4818 122.96267 616.8418 125.51367 C 622.8118 127.90767 632.35905 126.11719 638.74805 126.11719 C 633.46405 116.63619 626.43988 107.97119 620.17188 99.117188 C 616.31388 93.666188 612.92405 87.392187 607.74805 83.117188 z M 422.74805 109.11719 L 422.74805 126.11719 L 505.74805 126.11719 L 505.74805 109.11719 L 422.74805 109.11719 z " />
</svg>
